# xmcd
#
# Track frame offsets: 
#        150
#        10872
#        23454
#        33373
#        43050
#        52548
#        62046
#        72355
#        83822
#        93708
#        103699
#        114002
#        124481
#        133154
#        142553
#        153493
#
# Disc length: 2175 seconds
#
# Revision: 0
# Processed by: cddbd v1.5.2PL0 Copyright (c) Steve Scherf et al.
# Submitted via: ExactAudioCopy v1.0b4
#
DISCID=c7087d10
DTITLE=Roy Orbinson - Only The Lonely CD 1
DYEAR=1900
DGENRE=
TTITLE0=Ooby Dooby
TTITLE1=Trying to Get You
TTITLE2=Ooby Dooby
TTITLE3=Go Go Go (Down The Line)
TTITLE4=You're My Baby
TTITLE5=You're My Baby
TTITLE6=Chicken Hearted
TTITLE7=I Like Love
TTITLE8=Devil Doll
TTITLE9=Sweet And Easy To Love
TTITLE10=Seems To Me
TTITLE11=Sweet And Innocent
TTITLE12=Jolie
TTITLE13=Almost Eighteen
TTITLE14=With The Bug
TTITLE15=Paper boy
EXTD=
EXTT0=
EXTT1=
EXTT2=
EXTT3=
EXTT4=
EXTT5=
EXTT6=
EXTT7=
EXTT8=
EXTT9=
EXTT10=
EXTT11=
EXTT12=
EXTT13=
EXTT14=
EXTT15=
PLAYORDER=
